<svg width="200" height="100" viewBox="0 0 200 100" fill="none" xmlns="http://www.w3.org/2000/svg">
<g clip-path="url(#clip0_381_35)">
<g clip-path="url(#clip1_381_35)">
<path d="M123.632 47.5202H151.377C152.053 47.5202 152.661 47.9357 152.906 48.5665L161.267 70.0653C161.34 70.2557 161.378 70.4566 161.378 70.6601V91.1742C161.378 92.08 160.643 92.8153 159.737 92.8153H123.632C122.726 92.8153 121.991 92.08 121.991 91.1742V49.1613C121.991 48.2555 122.726 47.5202 123.632 47.5202Z" fill="#F83D3D"/>
<path d="M123.632 47.5202H151.377C152.053 47.5202 152.661 47.9357 152.906 48.5665L161.267 70.0653C161.34 70.2557 161.378 70.4566 161.378 70.6601V91.1742C161.378 92.08 160.643 92.8153 159.737 92.8153H123.632C122.726 92.8153 121.991 92.08 121.991 91.1742V49.1613C121.991 48.2555 122.726 47.5202 123.632 47.5202" stroke="#282828" stroke-width="1.96935"/>
<path d="M130.853 54.7411H154.315C154.997 54.7411 155.608 55.1623 155.85 55.7993L160.09 66.959C160.282 67.4633 160.213 68.0297 159.907 68.4738C159.601 68.9179 159.096 69.1831 158.556 69.1831H130.853C129.947 69.1831 129.212 68.4477 129.212 67.5419V56.3823C129.212 55.4765 129.947 54.7411 130.853 54.7411Z" fill="#7D7C7C"/>
<path d="M130.853 54.7411H154.315C154.997 54.7411 155.608 55.1623 155.85 55.7993L160.09 66.959C160.282 67.4633 160.213 68.0297 159.907 68.4738C159.601 68.9179 159.096 69.1831 158.556 69.1831H130.853C129.947 69.1831 129.212 68.4477 129.212 67.5419V56.3823C129.212 55.4765 129.947 54.7411 130.853 54.7411" stroke="#282828" stroke-width="1.96935"/>
<path d="M133.479 75.4194C133.479 75.6754 133.323 75.9878 132.906 76.2662C132.494 76.5399 131.886 76.7323 131.181 76.7323C130.477 76.7323 129.869 76.5406 129.457 76.2662C129.039 75.9872 128.884 75.6754 128.884 75.4194C128.884 75.1633 129.039 74.8509 129.457 74.5725C129.869 74.2988 130.477 74.1065 131.181 74.1065C131.886 74.1065 132.494 74.2981 132.906 74.5725C133.323 74.8515 133.479 75.1633 133.479 75.4194Z" fill="#282828"/>
<path d="M133.479 75.4194C133.479 75.6754 133.323 75.9878 132.906 76.2662C132.494 76.5399 131.886 76.7323 131.181 76.7323C130.477 76.7323 129.869 76.5406 129.457 76.2662C129.039 75.9872 128.884 75.6754 128.884 75.4194C128.884 75.1633 129.039 74.8509 129.457 74.5725C129.869 74.2988 130.477 74.1065 131.181 74.1065C131.886 74.1065 132.494 74.2981 132.906 74.5725C133.323 74.8515 133.479 75.1633 133.479 75.4194" stroke="#282828" stroke-width="1.3129"/>
<path d="M158.424 74.1065H160.394C160.756 74.1065 161.05 74.4006 161.05 74.7629V78.0452C161.05 78.4075 160.756 78.7016 160.394 78.7016H158.424C158.062 78.7016 157.768 78.4075 157.768 78.0452V74.7629C157.768 74.4006 158.062 74.1065 158.424 74.1065Z" fill="#FFFCAB"/>
<path d="M158.424 74.1065H160.394C160.756 74.1065 161.05 74.4006 161.05 74.7629V78.0452C161.05 78.4075 160.756 78.7016 160.394 78.7016H158.424C158.062 78.7016 157.768 78.4075 157.768 78.0452V74.7629C157.768 74.4006 158.062 74.1065 158.424 74.1065" stroke="#282828" stroke-width="1.3129"/>
<path d="M162.363 85.9226H163.676C164.038 85.9226 164.332 86.2167 164.332 86.579V92.4871C164.332 92.8494 164.038 93.1435 163.676 93.1435H162.363C162.001 93.1435 161.706 92.8494 161.706 92.4871V86.579C161.706 86.2167 162.001 85.9226 162.363 85.9226Z" fill="#282828"/>
<path d="M162.363 85.9226H163.676C164.038 85.9226 164.332 86.2167 164.332 86.579V92.4871C164.332 92.8494 164.038 93.1435 163.676 93.1435H162.363C162.001 93.1435 161.706 92.8494 161.706 92.4871V86.579C161.706 86.2167 162.001 85.9226 162.363 85.9226" stroke="#282828" stroke-width="1.3129"/>
<path d="M40.9194 33.7347H117.068C117.974 33.7347 118.709 34.47 118.709 35.3758V91.1742C118.709 92.08 117.974 92.8153 117.068 92.8153H40.9194C40.0136 92.8153 39.2782 92.08 39.2782 91.1742V35.3758C39.2782 34.47 40.0136 33.7347 40.9194 33.7347Z" fill="#DFDFDF"/>
<path d="M40.9194 33.7347H117.068C117.974 33.7347 118.709 34.47 118.709 35.3758V91.1742C118.709 92.08 117.974 92.8153 117.068 92.8153H40.9194C40.0136 92.8153 39.2782 92.08 39.2782 91.1742V35.3758C39.2782 34.47 40.0136 33.7347 40.9194 33.7347" stroke="#282828" stroke-width="1.96935"/>
<path d="M36.9806 87.8919H38.2935C39.0182 87.8919 39.6065 88.4802 39.6065 89.2048C39.6065 89.9294 39.0182 90.5177 38.2935 90.5177H36.9806C36.256 90.5177 35.6677 89.9294 35.6677 89.2048C35.6677 88.4802 36.256 87.8919 36.9806 87.8919Z" fill="#DFDFDF"/>
<path d="M36.9806 87.8919H38.2935C39.0182 87.8919 39.6065 88.4802 39.6065 89.2048V89.2048C39.6065 89.9294 39.0182 90.5177 38.2935 90.5177H36.9806C36.256 90.5177 35.6677 89.9294 35.6677 89.2048V89.2048C35.6677 88.4802 36.256 87.8919 36.9806 87.8919" stroke="#282828" stroke-width="1.3129"/>
</g>
<g clip-path="url(#clip2_381_35)">
<path d="M62 77.2C56.0393 77.2 51.2 82.0393 51.2 88C51.2 93.9607 56.0393 98.8 62 98.8C67.9607 98.8 72.8 93.9607 72.8 88C72.8 82.0393 67.9607 77.2 62 77.2Z" fill="#282828"/>
<path d="M62 77.2C56.0393 77.2 51.2 82.0393 51.2 88C51.2 93.9607 56.0393 98.8 62 98.8C67.9607 98.8 72.8 93.9607 72.8 88C72.8 82.0393 67.9607 77.2 62 77.2" stroke="#282828" stroke-width="2.4"/>
<path d="M62 82.4C58.9093 82.4 56.4 84.9093 56.4 88C56.4 91.0907 58.9093 93.6 62 93.6C65.0907 93.6 67.6 91.0907 67.6 88C67.6 84.9093 65.0907 82.4 62 82.4Z" fill="#DFDFDF"/>
</g>
<g clip-path="url(#clip3_381_35)">
<path d="M143 77.2C137.039 77.2 132.2 82.0393 132.2 88C132.2 93.9607 137.039 98.8 143 98.8C148.961 98.8 153.8 93.9607 153.8 88C153.8 82.0393 148.961 77.2 143 77.2Z" fill="#282828"/>
<path d="M143 77.2C137.039 77.2 132.2 82.0393 132.2 88C132.2 93.9607 137.039 98.8 143 98.8C148.961 98.8 153.8 93.9607 153.8 88C153.8 82.0393 148.961 77.2 143 77.2" stroke="#282828" stroke-width="2.4"/>
<path d="M143 82.4C139.909 82.4 137.4 84.9093 137.4 88C137.4 91.0907 139.909 93.6 143 93.6C146.091 93.6 148.6 91.0907 148.6 88C148.6 84.9093 146.091 82.4 143 82.4Z" fill="#DFDFDF"/>
</g>
<rect y="98.5" width="200" height="1.5" rx="0.75" fill="#282828"/>
<mask id="path-22-inside-1_381_35" fill="white">
<path d="M70.01 99.25C70.01 98.8358 70.3458 98.5 70.76 98.5H99.26C99.6742 98.5 100.01 98.8358 100.01 99.25C100.01 99.6642 99.6742 100 99.26 100H70.76C70.3458 100 70.01 99.6642 70.01 99.25Z"/>
</mask>
<path d="M70.01 99.25C70.01 98.8358 70.3458 98.5 70.76 98.5H99.26C99.6742 98.5 100.01 98.8358 100.01 99.25C100.01 99.6642 99.6742 100 99.26 100H70.76C70.3458 100 70.01 99.6642 70.01 99.25Z" fill="#282828"/>
<path d="M70.01 98.5H100.01H70.01ZM100.01 100H70.01H100.01ZM60.01 100V98.5H80.01V100H60.01ZM100.01 98.5V100V98.5Z" fill="white" mask="url(#path-22-inside-1_381_35)"/>
<mask id="path-24-inside-2_381_35" fill="white">
<path d="M116.01 99.25C116.01 98.8358 116.346 98.5 116.76 98.5H129.26C129.674 98.5 130.01 98.8358 130.01 99.25C130.01 99.6642 129.674 100 129.26 100H116.76C116.346 100 116.01 99.6642 116.01 99.25Z"/>
</mask>
<path d="M116.01 99.25C116.01 98.8358 116.346 98.5 116.76 98.5H129.26C129.674 98.5 130.01 98.8358 130.01 99.25C130.01 99.6642 129.674 100 129.26 100H116.76C116.346 100 116.01 99.6642 116.01 99.25Z" fill="#282828"/>
<path d="M116.01 98.5H130.01H116.01ZM130.01 100H116.01H130.01ZM112.01 100V98.5H120.01V100H112.01ZM130.01 98.5V100V98.5Z" fill="white" mask="url(#path-24-inside-2_381_35)"/>
<g clip-path="url(#clip4_381_35)">
<path d="M156.861 10C149.362 10 143.228 15.9449 142.919 23.3688H141.546V25.146C136.364 25.5753 132.523 27.1329 132.523 28.9896H134.506C134.176 30.0171 134.008 31.0896 134.008 32.1686C134.008 37.9156 138.684 42.5913 144.431 42.5913C150.178 42.5913 154.854 37.9156 154.854 32.1686C154.854 31.0814 154.684 30.0108 154.356 28.9896H156.34C156.34 27.1331 152.499 25.5751 147.316 25.146V23.3688H146.096C146.402 17.6966 151.113 13.1756 156.861 13.1756C162.805 13.1756 167.642 18.012 167.642 23.9567C167.642 29.6676 165.443 31.3021 162.659 33.3717C159.197 35.9456 155.273 38.8629 155.273 49.0282V71.6372H155.114C154.108 71.6372 153.294 72.4525 153.294 73.4586C153.293 74.001 153.535 74.5153 153.953 74.861C153.272 80.405 148.623 93.8638 152.32 97.7767V100H161.4V97.7767C165.097 93.8638 160.449 80.4048 159.767 74.861C160.359 74.3713 160.579 73.5633 160.319 72.8409C160.059 72.1186 159.373 71.6371 158.606 71.6372H158.448V49.0282C158.448 40.4593 161.413 38.2544 164.553 35.9204C167.489 33.7377 170.817 31.264 170.817 23.9569C170.817 16.2609 164.556 10 156.861 10ZM152.869 32.1684C152.869 36.821 149.084 40.6063 144.431 40.6063C139.778 40.6063 135.993 36.821 135.993 32.1684C135.993 31.0784 136.205 29.9987 136.616 28.9894H152.246C152.657 29.9987 152.869 31.0784 152.869 32.1684Z" fill="black"/>
</g>
</g>
<defs>
<clipPath id="clip0_381_35">
<rect width="200" height="100" fill="white"/>
</clipPath>
<clipPath id="clip1_381_35">
<rect width="130" height="61.05" fill="white" transform="translate(35 32.75)"/>
</clipPath>
<clipPath id="clip2_381_35">
<rect width="24" height="24" fill="white" transform="translate(50 76)"/>
</clipPath>
<clipPath id="clip3_381_35">
<rect width="24" height="24" fill="white" transform="translate(131 76)"/>
</clipPath>
<clipPath id="clip4_381_35">
<rect width="90" height="90" fill="white" transform="translate(106.67 10)"/>
</clipPath>
</defs>
</svg>
